# xmcd
#
# Track frame offsets:
#	150
#	19322
#	38667
#	53952
#	69305
#	93177
#	107002
#	119857
#	137377
#	158722
#
# Disc length: 2298 seconds
#
# Revision: 1
# Processed by: cddbd v1.4PL0 Copyright (c) Steve Scherf et al.
# Submitted via: audiograbber 1.80.04
#
DISCID=7f08f80a
DTITLE=Various Artist - Super 10 Vol 11
DYEAR=1986
DGENRE=Country
TTITLE0=Judds, The - Granpa
TTITLE1=Ronnie Milsap - Lost In The Fifties Tonight
TTITLE2=Earl Thomas Conley - Nobody Falls Like A Fool
TTITLE3=Eddie Rabbitt - Repetitive Regret
TTITLE4=Alabama - She And I
TTITLE5=Restless Heart - Til I Loved You
TTITLE6=Waylon Jennings - Sweet Mother Texas
TTITLE7=Louise Mandrell - Some Girls Have All The Luck
TTITLE8=Vince Gill - With You
TTITLE9=Juice Newton - Old Flame
EXTD=
EXTT0=
EXTT1=
EXTT2=
EXTT3=
EXTT4=
EXTT5=
EXTT6=
EXTT7=
EXTT8=
EXTT9=
PLAYORDER=
